STARTFONT 2.1
FONT -Adobe-New Century Schoolbook-Medium-I-Normal--12-120-75-75-P-70-ISO8859-2
SIZE 12 75 75
FONTBOUNDINGBOX 17 15 -2 -3
COMMENT $XConsortium: ncenI12.bdf,v 1.15 95/01/26 18:04:19 gildea Exp $
COMMENT 
COMMENT +
COMMENT  Copyright 1984-1989, 1994 Adobe Systems Incorporated.
COMMENT  Copyright 1988, 1994 Digital Equipment Corporation.
COMMENT
COMMENT  Adobe is a trademark of Adobe Systems Incorporated which may be
COMMENT  registered in certain jurisdictions.
COMMENT  Permission to use these trademarks is hereby granted only in
COMMENT  association with the images described in this file.
COMMENT
COMMENT  Permission to use, copy, modify, distribute and sell this software
COMMENT  and its documentation for any purpose and without fee is hereby
COMMENT  granted, provided that the above copyright notices appear in all
COMMENT  copies and that both those copyright notices and this permission
COMMENT  notice appear in supporting documentation, and that the names of
COMMENT  Adobe Systems and Digital Equipment Corporation not be used in
COMMENT  advertising or publicity pertaining to distribution of the software
COMMENT  without specific, written prior permission.  Adobe Systems and
COMMENT  Digital Equipment Corporation make no representations about the
COMMENT  suitability of this software for any purpose.  It is provided "as
COMMENT  is" without express or implied warranty.
COMMENT -
COMMENT  
COMMENT  Translation to ISO8859-2 by Cub Soft;  Petr.Kolar@vslib.cz
COMMENT  
STARTPROPERTIES 28
FOUNDRY "Adobe"
FAMILY_NAME "New Century Schoolbook"
WEIGHT_NAME "Medium"
SLANT "I"
SETWIDTH_NAME "Normal"
ADD_STYLE_NAME ""
PIXEL_SIZE 12
POINT_SIZE 120
RESOLUTION_X 75
RESOLUTION_Y 75
SPACING "P"
AVERAGE_WIDTH 70
CHARSET_REGISTRY "ISO8859"
CHARSET_ENCODING "2"
CAP_HEIGHT 9
X_HEIGHT 6
FONT_ASCENT 11
FONT_DESCENT 3
FACE_NAME "New Century Schoolbook Italic"

STARTCHAR space
ENCODING 32
SWIDTH 278 0
DWIDTH 3 0
BBX 1 1 0 0
BITMAP
00
ENDCHAR
STARTCHAR exclam
ENCODING 33
SWIDTH 333 0
DWIDTH 4 0
BBX 3 9 0 0
BITMAP
20
20
20
40
40
40
00
80
80
ENDCHAR
STARTCHAR quotedbl
ENCODING 34
SWIDTH 400 0
DWIDTH 6 0
BBX 3 3 1 6
BITMAP
a0
a0
a0
ENDCHAR
STARTCHAR numbersign
ENCODING 35
SWIDTH 606 0
DWIDTH 8 0
BBX 7 8 0 0
BITMAP
14
14
7e
28
28
fc
50
50
ENDCHAR
STARTCHAR dollar
ENCODING 36
SWIDTH 556 0
DWIDTH 6 0
BBX 7 11 -1 -1
BITMAP
08
0e
1a
28
30
18
14
14
a8
f0
20
ENDCHAR
STARTCHAR percent
ENCODING 37
SWIDTH 833 0
DWIDTH 10 0
BBX 9 9 0 0
BITMAP
3600
5a00
9400
a400
c980
0a80
1480
1500
2600
ENDCHAR
STARTCHAR ampersand
ENCODING 38
SWIDTH 852 0
DWIDTH 10 0
BBX 9 9 0 0
BITMAP
1800
2400
2400
2800
5380
9100
8a00
8c80
7700
ENDCHAR
STARTCHAR apostrophe
ENCODING 39
SWIDTH 204 0
DWIDTH 3 0
BBX 2 3 0 6
BITMAP
40
40
80
ENDCHAR
STARTCHAR parenleft
ENCODING 40
SWIDTH 333 0
DWIDTH 5 0
BBX 4 11 0 -2
BITMAP
10
20
40
40
80
80
80
80
40
40
20
ENDCHAR
STARTCHAR parenright
ENCODING 41
SWIDTH 333 0
DWIDTH 5 0
BBX 4 11 0 -2
BITMAP
40
20
20
10
10
10
10
20
20
40
80
ENDCHAR
STARTCHAR asterisk
ENCODING 42
SWIDTH 500 0
DWIDTH 7 0
BBX 6 6 0 3
BITMAP
10
54
38
70
a8
20
ENDCHAR
STARTCHAR plus
ENCODING 43
SWIDTH 606 0
DWIDTH 8 0
BBX 7 7 0 0
BITMAP
10
10
10
fe
10
10
10
ENDCHAR
STARTCHAR comma
ENCODING 44
SWIDTH 278 0
DWIDTH 2 0
BBX 2 3 -1 -1
BITMAP
40
40
80
ENDCHAR
STARTCHAR minus
ENCODING 45
SWIDTH 606 0
DWIDTH 7 0
BBX 6 1 0 3
BITMAP
fc
ENDCHAR
STARTCHAR period
ENCODING 46
SWIDTH 278 0
DWIDTH 2 0
BBX 1 2 0 0
BITMAP
80
80
ENDCHAR
STARTCHAR slash
ENCODING 47
SWIDTH 606 0
DWIDTH 8 0
BBX 5 10 1 -1
BITMAP
08
08
10
10
20
20
40
40
80
80
ENDCHAR
STARTCHAR zero
ENCODING 48
SWIDTH 556 0
DWIDTH 6 0
BBX 5 9 0 0
BITMAP
30
48
48
48
90
90
90
90
60
ENDCHAR
STARTCHAR one
ENCODING 49
SWIDTH 556 0
DWIDTH 6 0
BBX 3 9 1 0
BITMAP
20
e0
20
20
20
40
40
40
e0
ENDCHAR
STARTCHAR two
ENCODING 50
SWIDTH 556 0
DWIDTH 6 0
BBX 6 9 -1 0
BITMAP
38
44
04
04
08
30
40
88
f8
ENDCHAR
STARTCHAR three
ENCODING 51
SWIDTH 556 0
DWIDTH 6 0
BBX 5 9 0 0
BITMAP
30
48
08
10
30
08
08
90
e0
ENDCHAR
STARTCHAR four
ENCODING 52
SWIDTH 556 0
DWIDTH 6 0
BBX 5 9 0 0
BITMAP
18
28
28
48
48
90
f8
10
38
ENDCHAR
STARTCHAR five
ENCODING 53
SWIDTH 556 0
DWIDTH 6 0
BBX 6 9 0 0
BITMAP
3c
20
20
70
48
08
08
90
e0
ENDCHAR
STARTCHAR six
ENCODING 54
SWIDTH 556 0
DWIDTH 6 0
BBX 5 9 0 0
BITMAP
38
48
40
b0
c8
88
88
90
60
ENDCHAR
STARTCHAR seven
ENCODING 55
SWIDTH 556 0
DWIDTH 6 0
BBX 5 9 0 0
BITMAP
f8
88
90
10
20
20
40
40
40
ENDCHAR
STARTCHAR eight
ENCODING 56
SWIDTH 556 0
DWIDTH 6 0
BBX 5 9 0 0
BITMAP
30
48
48
50
30
48
88
90
60
ENDCHAR
STARTCHAR nine
ENCODING 57
SWIDTH 556 0
DWIDTH 6 0
BBX 5 9 0 0
BITMAP
30
48
88
88
98
68
10
90
e0
ENDCHAR
STARTCHAR colon
ENCODING 58
SWIDTH 278 0
DWIDTH 3 0
BBX 2 6 0 0
BITMAP
40
40
00
00
80
80
ENDCHAR
STARTCHAR semicolon
ENCODING 59
SWIDTH 278 0
DWIDTH 3 0
BBX 3 7 -1 -1
BITMAP
20
20
00
00
40
40
80
ENDCHAR
STARTCHAR less
ENCODING 60
SWIDTH 606 0
DWIDTH 7 0
BBX 6 5 0 1
BITMAP
0c
30
c0
30
0c
ENDCHAR
STARTCHAR equal
ENCODING 61
SWIDTH 606 0
DWIDTH 7 0
BBX 6 3 0 2
BITMAP
fc
00
fc
ENDCHAR
STARTCHAR greater
ENCODING 62
SWIDTH 606 0
DWIDTH 7 0
BBX 6 5 0 1
BITMAP
c0
30
0c
30
c0
ENDCHAR
STARTCHAR question
ENCODING 63
SWIDTH 444 0
DWIDTH 5 0
BBX 4 9 0 0
BITMAP
60
90
10
60
80
40
00
80
80
ENDCHAR
STARTCHAR at
ENCODING 64
SWIDTH 747 0
DWIDTH 11 0
BBX 10 9 0 0
BITMAP
1f00
2080
4e40
9240
a440
a480
9b00
4000
3e00
ENDCHAR
STARTCHAR A
ENCODING 65
SWIDTH 704 0
DWIDTH 8 0
BBX 9 9 -1 0
BITMAP
0400
0c00
0c00
1200
1200
3e00
2100
4100
e380
ENDCHAR
STARTCHAR B
ENCODING 66
SWIDTH 722 0
DWIDTH 8 0
BBX 7 9 0 0
BITMAP
7c
22
22
24
3c
42
42
44
f8
ENDCHAR
STARTCHAR C
ENCODING 67
SWIDTH 722 0
DWIDTH 9 0
BBX 8 9 0 0
BITMAP
1d
23
41
80
80
80
80
42
3c
ENDCHAR
STARTCHAR D
ENCODING 68
SWIDTH 778 0
DWIDTH 10 0
BBX 9 9 0 0
BITMAP
7e00
2100
2080
2080
4080
4080
4100
4200
fc00
ENDCHAR
STARTCHAR E
ENCODING 69
SWIDTH 722 0
DWIDTH 9 0
BBX 8 9 0 0
BITMAP
7f
21
21
24
3c
44
40
42
fe
ENDCHAR
STARTCHAR F
ENCODING 70
SWIDTH 667 0
DWIDTH 9 0
BBX 8 9 0 0
BITMAP
7f
21
21
24
3c
44
40
40
e0
ENDCHAR
STARTCHAR G
ENCODING 71
SWIDTH 778 0
DWIDTH 9 0
BBX 8 9 0 0
BITMAP
1d
23
41
80
80
87
82
46
3a
ENDCHAR
STARTCHAR H
ENCODING 72
SWIDTH 833 0
DWIDTH 10 0
BBX 9 9 0 0
BITMAP
7380
2100
2100
2100
3e00
4200
4200
4200
e700
ENDCHAR
STARTCHAR I
ENCODING 73
SWIDTH 407 0
DWIDTH 5 0
BBX 4 9 0 0
BITMAP
70
20
20
20
40
40
40
40
e0
ENDCHAR
STARTCHAR J
ENCODING 74
SWIDTH 611 0
DWIDTH 7 0
BBX 6 9 0 0
BITMAP
1c
08
08
08
08
10
90
90
60
ENDCHAR
STARTCHAR K
ENCODING 75
SWIDTH 741 0
DWIDTH 9 0
BBX 9 9 0 0
BITMAP
7380
2200
2400
2800
3000
4800
4400
4200
e700
ENDCHAR
STARTCHAR L
ENCODING 76
SWIDTH 667 0
DWIDTH 8 0
BBX 7 9 0 0
BITMAP
70
20
20
20
20
40
42
42
fe
ENDCHAR
STARTCHAR M
ENCODING 77
SWIDTH 944 0
DWIDTH 13 0
BBX 12 9 0 0
BITMAP
7070
3060
30a0
28a0
2920
4940
4a40
4640
e4e0
ENDCHAR
STARTCHAR N
ENCODING 78
SWIDTH 815 0
DWIDTH 11 0
BBX 10 9 0 0
BITMAP
71c0
3080
2880
2880
2500
4500
4300
4300
e100
ENDCHAR
STARTCHAR O
ENCODING 79
SWIDTH 778 0
DWIDTH 9 0
BBX 8 9 0 0
BITMAP
1c
22
41
81
81
81
82
44
38
ENDCHAR
STARTCHAR P
ENCODING 80
SWIDTH 667 0
DWIDTH 8 0
BBX 8 9 0 0
BITMAP
7e
21
21
22
3c
40
40
40
e0
ENDCHAR
STARTCHAR Q
ENCODING 81
SWIDTH 778 0
DWIDTH 9 0
BBX 8 11 0 -2
BITMAP
1c
22
41
81
81
b1
ca
4c
38
09
06
ENDCHAR
STARTCHAR R
ENCODING 82
SWIDTH 741 0
DWIDTH 10 0
BBX 9 9 0 0
BITMAP
7e00
2100
2100
2200
3c00
4200
4200
4280
e300
ENDCHAR
STARTCHAR S
ENCODING 83
SWIDTH 667 0
DWIDTH 9 0
BBX 8 9 0 0
BITMAP
1d
63
41
60
18
06
82
c2
bc
ENDCHAR
STARTCHAR T
ENCODING 84
SWIDTH 685 0
DWIDTH 8 0
BBX 7 9 0 0
BITMAP
fe
92
92
10
10
20
20
20
70
ENDCHAR
STARTCHAR U
ENCODING 85
SWIDTH 815 0
DWIDTH 8 0
BBX 8 9 0 0
BITMAP
e7
42
42
42
84
84
84
84
78
ENDCHAR
STARTCHAR V
ENCODING 86
SWIDTH 704 0
DWIDTH 9 0
BBX 9 9 0 0
BITMAP
e380
4100
4200
2200
2400
2400
1800
1800
1000
ENDCHAR
STARTCHAR W
ENCODING 87
SWIDTH 926 0
DWIDTH 13 0
BBX 13 9 0 0
BITMAP
e738
4210
4210
4620
2520
2940
2940
1080
1080
ENDCHAR
STARTCHAR X
ENCODING 88
SWIDTH 704 0
DWIDTH 10 0
BBX 9 9 0 0
BITMAP
3b80
1100
1200
0c00
0800
1400
2400
4200
e700
ENDCHAR
STARTCHAR Y
ENCODING 89
SWIDTH 685 0
DWIDTH 8 0
BBX 8 9 0 0
BITMAP
e7
42
24
28
10
10
20
20
70
ENDCHAR
STARTCHAR Z
ENCODING 90
SWIDTH 667 0
DWIDTH 9 0
BBX 8 9 0 0
BITMAP
7f
42
44
08
10
10
22
42
fe
ENDCHAR
STARTCHAR bracketleft
ENCODING 91
SWIDTH 333 0
DWIDTH 6 0
BBX 5 11 0 -2
BITMAP
38
20
20
40
40
40
40
80
80
80
e0
ENDCHAR
STARTCHAR backslash
ENCODING 92
SWIDTH 606 0
DWIDTH 8 0
BBX 5 9 1 0
BITMAP
80
80
40
40
20
20
10
10
08
ENDCHAR
STARTCHAR bracketright
ENCODING 93
SWIDTH 333 0
DWIDTH 6 0
BBX 5 11 0 -2
BITMAP
38
08
08
08
10
10
10
10
20
20
e0
ENDCHAR
STARTCHAR asciicircum
ENCODING 94
SWIDTH 606 0
DWIDTH 6 0
BBX 5 6 0 3
BITMAP
20
20
50
50
88
88
ENDCHAR
STARTCHAR underscore
ENCODING 95
SWIDTH 500 0
DWIDTH 6 0
BBX 6 1 0 -2
BITMAP
fc
ENDCHAR
STARTCHAR grave
ENCODING 96
SWIDTH 333 0
DWIDTH 4 0
BBX 2 2 1 7
BITMAP
80
40
ENDCHAR
STARTCHAR a
ENCODING 97
SWIDTH 574 0
DWIDTH 8 0
BBX 7 6 0 0
BITMAP
34
4c
84
88
9a
6c
ENDCHAR
STARTCHAR b
ENCODING 98
SWIDTH 556 0
DWIDTH 7 0
BBX 6 9 0 0
BITMAP
60
20
20
58
64
44
84
88
70
ENDCHAR
STARTCHAR c
ENCODING 99
SWIDTH 444 0
DWIDTH 6 0
BBX 5 6 0 0
BITMAP
38
48
80
80
90
60
ENDCHAR
STARTCHAR d
ENCODING 100
SWIDTH 611 0
DWIDTH 8 0
BBX 7 9 0 0
BITMAP
06
02
02
34
4c
84
88
9a
6c
ENDCHAR
STARTCHAR e
ENCODING 101
SWIDTH 444 0
DWIDTH 6 0
BBX 5 6 0 0
BITMAP
30
48
f0
80
90
60
ENDCHAR
STARTCHAR f
ENCODING 102
SWIDTH 333 0
DWIDTH 4 0
BBX 5 12 0 -3
BITMAP
18
20
20
f0
40
40
40
80
80
80
80
80
ENDCHAR
STARTCHAR g
ENCODING 103
SWIDTH 537 0
DWIDTH 6 0
BBX 7 10 -1 -3
BITMAP
06
18
24
28
30
40
30
48
88
70
ENDCHAR
STARTCHAR h
ENCODING 104
SWIDTH 611 0
DWIDTH 8 0
BBX 7 9 0 0
BITMAP
60
20
20
58
64
44
88
8a
8c
ENDCHAR
STARTCHAR i
ENCODING 105
SWIDTH 333 0
DWIDTH 4 0
BBX 3 9 0 0
BITMAP
20
20
00
c0
40
40
80
a0
c0
ENDCHAR
STARTCHAR j
ENCODING 106
SWIDTH 315 0
DWIDTH 3 0
BBX 5 12 -2 -3
BITMAP
08
08
00
30
10
10
10
20
20
20
20
c0
ENDCHAR
STARTCHAR k
ENCODING 107
SWIDTH 556 0
DWIDTH 7 0
BBX 6 9 0 0
BITMAP
60
20
20
58
64
48
b0
94
88
ENDCHAR
STARTCHAR l
ENCODING 108
SWIDTH 333 0
DWIDTH 4 0
BBX 3 9 0 0
BITMAP
60
20
20
40
40
40
80
a0
c0
ENDCHAR
STARTCHAR m
ENCODING 109
SWIDTH 889 0
DWIDTH 12 0
BBX 11 6 0 0
BITMAP
d980
6640
4440
8880
88a0
88c0
ENDCHAR
STARTCHAR n
ENCODING 110
SWIDTH 611 0
DWIDTH 8 0
BBX 7 6 0 0
BITMAP
d8
64
44
88
8a
8c
ENDCHAR
STARTCHAR o
ENCODING 111
SWIDTH 500 0
DWIDTH 6 0
BBX 5 6 0 0
BITMAP
30
48
88
88
90
60
ENDCHAR
STARTCHAR p
ENCODING 112
SWIDTH 574 0
DWIDTH 7 0
BBX 8 9 -2 -3
BITMAP
36
19
11
21
32
2c
40
40
e0
ENDCHAR
STARTCHAR q
ENCODING 113
SWIDTH 556 0
DWIDTH 7 0
BBX 6 9 0 -3
BITMAP
34
4c
84
88
98
68
10
10
38
ENDCHAR
STARTCHAR r
ENCODING 114
SWIDTH 444 0
DWIDTH 5 0
BBX 5 6 0 0
BITMAP
d8
68
40
80
80
80
ENDCHAR
STARTCHAR s
ENCODING 115
SWIDTH 444 0
DWIDTH 6 0
BBX 5 6 0 0
BITMAP
38
48
20
10
90
e0
ENDCHAR
STARTCHAR t
ENCODING 116
SWIDTH 352 0
DWIDTH 4 0
BBX 4 8 0 0
BITMAP
20
20
f0
40
40
80
a0
c0
ENDCHAR
STARTCHAR u
ENCODING 117
SWIDTH 611 0
DWIDTH 8 0
BBX 7 6 0 0
BITMAP
c4
44
44
88
9a
6c
ENDCHAR
STARTCHAR v
ENCODING 118
SWIDTH 519 0
DWIDTH 7 0
BBX 6 6 0 0
BITMAP
cc
44
44
88
90
60
ENDCHAR
STARTCHAR w
ENCODING 119
SWIDTH 778 0
DWIDTH 10 0
BBX 9 6 0 0
BITMAP
c980
4880
8880
8880
9900
6600
ENDCHAR
STARTCHAR x
ENCODING 120
SWIDTH 500 0
DWIDTH 6 0
BBX 7 6 -1 0
BITMAP
66
28
10
10
28
cc
ENDCHAR
STARTCHAR y
ENCODING 121
SWIDTH 500 0
DWIDTH 6 0
BBX 7 9 -1 -3
BITMAP
42
a4
24
28
10
10
20
a0
c0
ENDCHAR
STARTCHAR z
ENCODING 122
SWIDTH 463 0
DWIDTH 6 0
BBX 6 6 -1 0
BITMAP
74
48
10
20
48
b8
ENDCHAR
STARTCHAR braceleft
ENCODING 123
SWIDTH 333 0
DWIDTH 5 0
BBX 4 11 0 -2
BITMAP
10
20
20
20
40
80
40
40
40
40
20
ENDCHAR
STARTCHAR bar
ENCODING 124
SWIDTH 606 0
DWIDTH 6 0
BBX 1 9 2 0
BITMAP
80
80
80
80
80
80
80
80
80
ENDCHAR
STARTCHAR braceright
ENCODING 125
SWIDTH 333 0
DWIDTH 5 0
BBX 4 11 0 -2
BITMAP
40
20
20
20
10
20
40
40
40
40
80
ENDCHAR
STARTCHAR asciitilde
ENCODING 126
SWIDTH 606 0
DWIDTH 7 0
BBX 6 2 0 3
BITMAP
64
98
ENDCHAR
STARTCHAR nobreakspace
ENCODING 160
SWIDTH 278 0
DWIDTH 3 0
BBX 1 1 0 0
BITMAP
00
ENDCHAR
STARTCHAR Aogonek
ENCODING 161
SWIDTH 704 0
DWIDTH 8 0
BBX 9 12 -1 -3
BITMAP
0400
0c00
0c00
1200
1200
3e00
2100
4100
e380
0800
1000
1c00
ENDCHAR
STARTCHAR breve
ENCODING 162
SWIDTH 333 0
DWIDTH 5 0
BBX 4 3 0 7
BITMAP
90
90
60
ENDCHAR
STARTCHAR Lstroke
ENCODING 163
SWIDTH 667 0
DWIDTH 8 0
BBX 7 9 0 0
BITMAP
70
20
20
38
e0
40
42
42
fe
ENDCHAR
STARTCHAR currency
ENCODING 164
SWIDTH 606 0
DWIDTH 9 0
BBX 6 6 1 2
BITMAP
b4
48
84
84
48
b4
ENDCHAR
STARTCHAR Lcaron
ENCODING 165
SWIDTH 667 0
DWIDTH 8 0
BBX 7 10 0 0
BITMAP
02
72
24
20
20
20
40
42
42
fe
ENDCHAR
STARTCHAR Sacute
ENCODING 166
SWIDTH 667 0
DWIDTH 9 0
BBX 8 12 0 0
BITMAP
04
08
00
1d
63
41
60
18
06
82
c2
bc
ENDCHAR
STARTCHAR section
ENCODING 167
SWIDTH 500 0
DWIDTH 6 0
BBX 5 11 0 -2
BITMAP
38
48
40
60
90
88
48
30
10
90
e0
ENDCHAR
STARTCHAR diaeresis
ENCODING 168
SWIDTH 333 0
DWIDTH 5 0
BBX 3 2 1 7
BITMAP
a0
a0
ENDCHAR
STARTCHAR Scaron
ENCODING 169
SWIDTH 667 0
DWIDTH 9 0
BBX 8 12 0 0
BITMAP
14
08
00
1d
63
41
60
18
06
82
c2
bc
ENDCHAR
STARTCHAR Scedilla
ENCODING 170
SWIDTH 667 0
DWIDTH 9 0
BBX 8 12 0 -3
BITMAP
1d
63
41
60
18
06
82
c2
bc
10
08
30
ENDCHAR
STARTCHAR Tcaron
ENCODING 171
SWIDTH 685 0
DWIDTH 8 0
BBX 7 12 0 0
BITMAP
28
10
00
fe
92
92
10
10
20
20
20
70
ENDCHAR
STARTCHAR Zacute
ENCODING 172
SWIDTH 667 0
DWIDTH 9 0
BBX 8 12 0 0
BITMAP
04
08
00
7f
42
44
08
10
10
22
42
fe
ENDCHAR
STARTCHAR hyphen
ENCODING 173
SWIDTH 333 0
DWIDTH 4 0
BBX 3 1 0 3
BITMAP
e0
ENDCHAR
STARTCHAR Zcaron
ENCODING 174
SWIDTH 667 0
DWIDTH 9 0
BBX 8 12 0 0
BITMAP
14
08
00
7f
42
44
08
10
10
22
42
fe
ENDCHAR
STARTCHAR Zabovedot
ENCODING 175
SWIDTH 667 0
DWIDTH 9 0
BBX 8 12 0 0
BITMAP
08
08
00
7f
42
44
08
10
10
22
42
fe
ENDCHAR
STARTCHAR degree
ENCODING 176
SWIDTH 400 0
DWIDTH 5 0
BBX 4 4 0 5
BITMAP
60
90
90
60
ENDCHAR
STARTCHAR aogonek
ENCODING 177
SWIDTH 574 0
DWIDTH 8 0
BBX 7 9 0 -3
BITMAP
34
4c
84
88
9a
6c
10
20
38
ENDCHAR
STARTCHAR ogonek
ENCODING 178
SWIDTH 333 0
DWIDTH 4 0
BBX 3 3 0 -3
BITMAP
40
80
e0
ENDCHAR
STARTCHAR lstroke
ENCODING 179
SWIDTH 333 0
DWIDTH 4 0
BBX 4 9 0 0
BITMAP
60
20
30
60
c0
40
80
a0
c0
ENDCHAR
STARTCHAR acute
ENCODING 180
SWIDTH 333 0
DWIDTH 4 0
BBX 2 2 1 7
BITMAP
40
80
ENDCHAR
STARTCHAR lcaron
ENCODING 181
SWIDTH 560 0
DWIDTH 7 0
BBX 6 10 0 0
BITMAP
04
64
28
20
40
40
40
80
a0
c0
ENDCHAR
STARTCHAR sacute
ENCODING 182
SWIDTH 444 0
DWIDTH 6 0
BBX 5 9 0 0
BITMAP
10
20
00
38
48
20
10
90
e0
ENDCHAR
STARTCHAR caron
ENCODING 183
SWIDTH 333 0
DWIDTH 5 0
BBX 3 2 1 7
BITMAP
a0
40
ENDCHAR
STARTCHAR cedilla
ENCODING 184
SWIDTH 333 0
DWIDTH 4 0
BBX 3 3 0 -3
BITMAP
40
20
c0
ENDCHAR
STARTCHAR scaron
ENCODING 185
SWIDTH 444 0
DWIDTH 6 0
BBX 5 9 0 0
BITMAP
50
20
00
38
48
20
10
90
e0
ENDCHAR
STARTCHAR scedilla
ENCODING 186
SWIDTH 444 0
DWIDTH 6 0
BBX 5 9 0 -3
BITMAP
38
48
20
10
90
e0
20
10
60
ENDCHAR
STARTCHAR tcaron
ENCODING 187
SWIDTH 480 0
DWIDTH 6 0
BBX 6 10 0 0
BITMAP
04
04
28
20
f0
40
40
80
a0
c0
ENDCHAR
STARTCHAR zacute
ENCODING 188
SWIDTH 463 0
DWIDTH 6 0
BBX 6 9 -1 0
BITMAP
08
10
00
74
48
10
20
48
b8
ENDCHAR
STARTCHAR doubleacute
ENCODING 189
SWIDTH 333 0
DWIDTH 6 0
BBX 5 2 0 7
BITMAP
48
90
ENDCHAR
STARTCHAR zcaron
ENCODING 190
SWIDTH 463 0
DWIDTH 6 0
BBX 6 9 -1 0
BITMAP
28
10
00
74
48
10
20
48
b8
ENDCHAR
STARTCHAR zabovedot
ENCODING 191
SWIDTH 463 0
DWIDTH 6 0
BBX 6 9 -1 0
BITMAP
10
10
00
74
48
10
20
48
b8
ENDCHAR
STARTCHAR Racute
ENCODING 192
SWIDTH 741 0
DWIDTH 10 0
BBX 9 12 0 0
BITMAP
0400
0800
0000
7e00
2100
2100
2200
3c00
4200
4200
4280
e300
ENDCHAR
STARTCHAR Aacute
ENCODING 193
SWIDTH 704 0
DWIDTH 8 0
BBX 9 12 -1 0
BITMAP
0300
0400
0000
0400
0c00
0c00
1200
1200
3e00
2100
4100
e380
ENDCHAR
STARTCHAR Acircumflex
ENCODING 194
SWIDTH 704 0
DWIDTH 8 0
BBX 9 12 -1 0
BITMAP
0600
0900
0000
0400
0c00
0c00
1200
1200
3e00
2100
4100
e380
ENDCHAR
STARTCHAR Abreve
ENCODING 195
SWIDTH 704 0
DWIDTH 8 0
BBX 9 13 -1 0
BITMAP
1200
1200
0c00
0000
0400
0c00
0c00
1200
1200
3e00
2100
4100
e380
ENDCHAR
STARTCHAR Adiaeresis
ENCODING 196
SWIDTH 704 0
DWIDTH 8 0
BBX 9 12 -1 0
BITMAP
1200
1200
0000
0400
0c00
0c00
1200
1200
3e00
2100
4100
e380
ENDCHAR
STARTCHAR Lacute
ENCODING 197
SWIDTH 667 0
DWIDTH 8 0
BBX 7 12 0 0
BITMAP
10
20
00
70
20
20
20
20
40
42
42
fe
ENDCHAR
STARTCHAR Cacute
ENCODING 198
SWIDTH 722 0
DWIDTH 9 0
BBX 8 12 0 0
BITMAP
04
08
00
1d
23
41
80
80
80
80
42
3c
ENDCHAR
STARTCHAR Ccedilla
ENCODING 199
SWIDTH 722 0
DWIDTH 9 0
BBX 8 12 0 -3
BITMAP
1d
23
41
80
80
80
80
42
3c
20
10
60
ENDCHAR
STARTCHAR Ccaron
ENCODING 200
SWIDTH 722 0
DWIDTH 9 0
BBX 8 12 0 0
BITMAP
14
08
00
1d
23
41
80
80
80
80
42
3c
ENDCHAR
STARTCHAR Eacute
ENCODING 201
SWIDTH 722 0
DWIDTH 9 0
BBX 8 12 0 0
BITMAP
06
08
00
7f
21
21
24
3c
44
40
42
fe
ENDCHAR
STARTCHAR Eogonek
ENCODING 202
SWIDTH 722 0
DWIDTH 9 0
BBX 8 12 0 -3
BITMAP
7f
21
21
24
3c
44
40
42
fe
10
20
38
ENDCHAR
STARTCHAR Ediaeresis
ENCODING 203
SWIDTH 722 0
DWIDTH 9 0
BBX 8 12 0 0
BITMAP
12
12
00
7f
21
21
24
3c
44
40
42
fe
ENDCHAR
STARTCHAR Ecaron
ENCODING 204
SWIDTH 722 0
DWIDTH 9 0
BBX 8 12 0 0
BITMAP
14
08
00
7f
21
21
24
3c
44
40
42
fe
ENDCHAR
STARTCHAR Iacute
ENCODING 205
SWIDTH 407 0
DWIDTH 5 0
BBX 5 12 0 0
BITMAP
18
20
00
70
20
20
20
40
40
40
40
e0
ENDCHAR
STARTCHAR Icircumflex
ENCODING 206
SWIDTH 407 0
DWIDTH 5 0
BBX 5 12 0 0
BITMAP
30
48
00
70
20
20
20
40
40
40
40
e0
ENDCHAR
STARTCHAR Dcaron
ENCODING 207
SWIDTH 778 0
DWIDTH 10 0
BBX 9 12 0 0
BITMAP
1400
0800
0000
7e00
2100
2080
2080
4080
4080
4100
4200
fc00
ENDCHAR
STARTCHAR Dstroke
ENCODING 208
SWIDTH 778 0
DWIDTH 10 0
BBX 9 9 0 0
BITMAP
7e00
2100
2080
2080
f080
4080
4100
4200
fc00
ENDCHAR
STARTCHAR Nacute
ENCODING 209
SWIDTH 815 0
DWIDTH 11 0
BBX 10 12 0 0
BITMAP
0200
0400
0000
71c0
3080
2880
2880
2500
4500
4300
4300
e100
ENDCHAR
STARTCHAR Ncaron
ENCODING 210
SWIDTH 815 0
DWIDTH 11 0
BBX 10 12 0 0
BITMAP
0a00
0400
0000
71c0
3080
2880
2880
2500
4500
4300
4300
e100
ENDCHAR
STARTCHAR Oacute
ENCODING 211
SWIDTH 778 0
DWIDTH 9 0
BBX 8 12 0 0
BITMAP
06
08
00
1c
22
41
81
81
81
82
44
38
ENDCHAR
STARTCHAR Ocircumflex
ENCODING 212
SWIDTH 778 0
DWIDTH 9 0
BBX 8 12 0 0
BITMAP
0c
12
00
1c
22
41
81
81
81
82
44
38
ENDCHAR
STARTCHAR Odoubleacute
ENCODING 213
SWIDTH 778 0
DWIDTH 9 0
BBX 8 12 0 0
BITMAP
09
12
00
1c
22
41
81
81
81
82
44
38
ENDCHAR
STARTCHAR Odiaeresis
ENCODING 214
SWIDTH 778 0
DWIDTH 9 0
BBX 8 12 0 0
BITMAP
12
12
00
1c
22
41
81
81
81
82
44
38
ENDCHAR
STARTCHAR multiply
ENCODING 215
SWIDTH 606 0
DWIDTH 8 0
BBX 7 7 0 0
BITMAP
82
44
28
10
28
44
82
ENDCHAR
STARTCHAR Rcaron
ENCODING 216
SWIDTH 741 0
DWIDTH 10 0
BBX 9 12 0 0
BITMAP
1400
0800
0000
7e00
2100
2100
2200
3c00
4200
4200
4280
e300
ENDCHAR
STARTCHAR Uring
ENCODING 217
SWIDTH 815 0
DWIDTH 8 0
BBX 8 13 0 0
BITMAP
18
24
18
00
e7
42
42
42
84
84
84
84
78
ENDCHAR
STARTCHAR Uacute
ENCODING 218
SWIDTH 815 0
DWIDTH 8 0
BBX 8 12 0 0
BITMAP
06
08
00
e7
42
42
42
84
84
84
84
78
ENDCHAR
STARTCHAR Udoubleacute
ENCODING 219
SWIDTH 815 0
DWIDTH 8 0
BBX 8 12 0 0
BITMAP
12
24
00
e7
42
42
42
84
84
84
84
78
ENDCHAR
STARTCHAR Udiaeresis
ENCODING 220
SWIDTH 815 0
DWIDTH 8 0
BBX 8 12 0 0
BITMAP
24
24
00
e7
42
42
42
84
84
84
84
78
ENDCHAR
STARTCHAR Yacute
ENCODING 221
SWIDTH 685 0
DWIDTH 8 0
BBX 8 12 0 0
BITMAP
06
08
00
e7
42
24
28
10
10
20
20
70
ENDCHAR
STARTCHAR Tcedilla
ENCODING 222
SWIDTH 685 0
DWIDTH 8 0
BBX 7 12 0 -3
BITMAP
fe
92
92
10
10
20
20
20
70
10
08
30
ENDCHAR
STARTCHAR ssharp
ENCODING 223
SWIDTH 556 0
DWIDTH 8 0
BBX 7 12 0 -3
BITMAP
1c
22
22
2c
42
42
42
52
9c
80
80
80
ENDCHAR
STARTCHAR racute
ENCODING 224
SWIDTH 444 0
DWIDTH 5 0
BBX 5 9 0 0
BITMAP
10
20
00
d8
68
40
80
80
80
ENDCHAR
STARTCHAR aacute
ENCODING 225
SWIDTH 574 0
DWIDTH 8 0
BBX 7 9 0 0
BITMAP
08
10
00
34
4c
84
88
9a
6c
ENDCHAR
STARTCHAR acircumflex
ENCODING 226
SWIDTH 574 0
DWIDTH 8 0
BBX 7 9 0 0
BITMAP
10
28
00
34
4c
84
88
9a
6c
ENDCHAR
STARTCHAR abreve
ENCODING 227
SWIDTH 574 0
DWIDTH 8 0
BBX 7 10 0 0
BITMAP
24
24
18
00
34
4c
84
88
9a
6c
ENDCHAR
STARTCHAR adiaeresis
ENCODING 228
SWIDTH 574 0
DWIDTH 8 0
BBX 7 9 0 0
BITMAP
28
28
00
34
4c
84
88
9a
6c
ENDCHAR
STARTCHAR lacute
ENCODING 229
SWIDTH 333 0
DWIDTH 4 0
BBX 3 12 0 0
BITMAP
20
40
00
60
20
20
40
40
40
80
a0
c0
ENDCHAR
STARTCHAR cacute
ENCODING 230
SWIDTH 444 0
DWIDTH 6 0
BBX 5 9 0 0
BITMAP
10
20
00
38
48
80
80
90
60
ENDCHAR
STARTCHAR ccedilla
ENCODING 231
SWIDTH 444 0
DWIDTH 6 0
BBX 5 9 0 -3
BITMAP
38
48
80
80
90
60
40
20
c0
ENDCHAR
STARTCHAR ccaron
ENCODING 232
SWIDTH 444 0
DWIDTH 6 0
BBX 5 9 0 0
BITMAP
50
20
00
38
48
80
80
90
60
ENDCHAR
STARTCHAR eacute
ENCODING 233
SWIDTH 444 0
DWIDTH 6 0
BBX 5 9 0 0
BITMAP
08
10
00
30
48
f0
80
90
60
ENDCHAR
STARTCHAR eogonek
ENCODING 234
SWIDTH 444 0
DWIDTH 6 0
BBX 5 9 0 -3
BITMAP
30
48
f0
80
90
60
20
40
70
ENDCHAR
STARTCHAR ediaeresis
ENCODING 235
SWIDTH 444 0
DWIDTH 6 0
BBX 5 9 0 0
BITMAP
50
50
00
30
48
f0
80
90
60
ENDCHAR
STARTCHAR ecaron
ENCODING 236
SWIDTH 444 0
DWIDTH 6 0
BBX 5 9 0 0
BITMAP
50
20
00
30
48
f0
80
90
60
ENDCHAR
STARTCHAR iacute
ENCODING 237
SWIDTH 333 0
DWIDTH 4 0
BBX 3 9 0 0
BITMAP
20
40
00
c0
40
40
80
a0
c0
ENDCHAR
STARTCHAR icircumflex
ENCODING 238
SWIDTH 333 0
DWIDTH 4 0
BBX 3 9 0 0
BITMAP
40
a0
00
c0
40
40
80
a0
c0
ENDCHAR
STARTCHAR dcaron
ENCODING 239
SWIDTH 880 0
DWIDTH 11 0
BBX 10 10 0 0
BITMAP
0040
0640
0280
0200
3400
4c00
8400
8800
9a00
6c00
ENDCHAR
STARTCHAR dstroke
ENCODING 240
SWIDTH 800 0
DWIDTH 10 0
BBX 9 9 0 0
BITMAP
0200
0f80
0200
3400
4c00
8400
8800
9a00
6c00
ENDCHAR
STARTCHAR nacute
ENCODING 241
SWIDTH 611 0
DWIDTH 8 0
BBX 7 9 0 0
BITMAP
10
20
00
d8
64
44
88
8a
8c
ENDCHAR
STARTCHAR ncaron
ENCODING 242
SWIDTH 611 0
DWIDTH 8 0
BBX 7 9 0 0
BITMAP
50
20
00
d8
64
44
88
8a
8c
ENDCHAR
STARTCHAR oacute
ENCODING 243
SWIDTH 500 0
DWIDTH 6 0
BBX 5 9 0 0
BITMAP
10
20
00
30
48
88
88
90
60
ENDCHAR
STARTCHAR ocircumflex
ENCODING 244
SWIDTH 500 0
DWIDTH 6 0
BBX 5 9 0 0
BITMAP
10
28
00
30
48
88
88
90
60
ENDCHAR
STARTCHAR odoubleacute
ENCODING 245
SWIDTH 500 0
DWIDTH 6 0
BBX 6 9 0 0
BITMAP
24
48
00
30
48
88
88
90
60
ENDCHAR
STARTCHAR odiaeresis
ENCODING 246
SWIDTH 500 0
DWIDTH 6 0
BBX 5 9 0 0
BITMAP
28
28
00
30
48
88
88
90
60
ENDCHAR
STARTCHAR division
ENCODING 247
SWIDTH 606 0
DWIDTH 8 0
BBX 7 7 0 0
BITMAP
10
10
00
fe
00
10
10
ENDCHAR
STARTCHAR rcaron
ENCODING 248
SWIDTH 444 0
DWIDTH 5 0
BBX 5 9 0 0
BITMAP
50
20
00
d8
68
40
80
80
80
ENDCHAR
STARTCHAR uring
ENCODING 249
SWIDTH 611 0
DWIDTH 8 0
BBX 7 10 0 0
BITMAP
30
48
30
00
c4
44
44
88
9a
6c
ENDCHAR
STARTCHAR uacute
ENCODING 250
SWIDTH 611 0
DWIDTH 8 0
BBX 7 9 0 0
BITMAP
08
10
00
c4
44
44
88
9a
6c
ENDCHAR
STARTCHAR udoubleacute
ENCODING 251
SWIDTH 611 0
DWIDTH 8 0
BBX 7 9 0 0
BITMAP
24
48
00
c4
44
44
88
9a
6c
ENDCHAR
STARTCHAR udiaeresis
ENCODING 252
SWIDTH 611 0
DWIDTH 8 0
BBX 7 9 0 0
BITMAP
28
28
00
c4
44
44
88
9a
6c
ENDCHAR
STARTCHAR yacute
ENCODING 253
SWIDTH 500 0
DWIDTH 6 0
BBX 7 12 -1 -3
BITMAP
08
10
00
42
a4
24
28
10
10
20
a0
c0
ENDCHAR
STARTCHAR tcedilla
ENCODING 254
SWIDTH 352 0
DWIDTH 4 0
BBX 4 11 0 -3
BITMAP
20
20
f0
40
40
80
a0
c0
40
20
c0
ENDCHAR
STARTCHAR abovedot
ENCODING 255
SWIDTH 333 0
DWIDTH 3 0
BBX 1 2 1 7
BITMAP
80
80
ENDCHAR
ENDFONT
